<svg width="102" height="78" viewBox="0 0 102 78" fill="none" xmlns="http://www.w3.org/2000/svg">
<path d="M13.888 23.216C13.888 24.752 14.464 25.2 15.36 25.2H20.864C22.912 25.2 23.616 24.496 24.768 23.408C25.472 22.768 26.048 21.808 26.752 21.808C27.328 21.808 27.456 22.32 27.456 23.088C27.456 23.6 27.2 25.84 27.2 26.8C27.2 27.76 27.264 29.744 27.264 30.448C27.264 31.088 27.072 32.112 26.432 32.112C25.6 32.112 24.768 30.32 24.384 29.68C23.936 28.976 23.488 28.336 22.144 28.336H15.424C14.208 28.336 13.888 28.656 13.888 29.872V40.624C13.888 42.288 14.464 43.12 16.32 43.12H25.28C30.208 43.12 31.04 41.072 32.896 37.168C33.216 36.464 34.048 35.952 34.624 35.952C35.264 35.952 35.52 36.592 35.52 37.552C35.52 39.344 33.6 44.08 33.088 44.912C32.576 45.872 32.448 46.128 31.36 46.128C28.992 46.128 17.408 45.808 10.624 45.808C7.616 45.808 3.84 46.128 3.392 46.128C2.688 46.064 1.28 45.68 1.28 45.04C1.28 44.08 3.392 43.76 4.8 43.12C6.976 42.16 7.808 40.88 7.808 38.512V15.152C7.808 11.504 6.208 11.44 2.56 10.416C1.984 10.224 1.536 9.904 1.536 9.328C1.536 8.56 2.432 8.176 3.776 8.176H22.144C24.832 8.176 28.608 7.856 29.76 7.856C30.784 7.856 31.296 8.176 31.424 8.752C31.68 9.776 32 13.296 32 14C32 14.768 31.744 15.664 30.976 15.664C30.208 15.664 29.248 14.512 28.672 13.232C28.16 12.144 26.56 11.12 23.488 11.12H15.872C14.144 11.12 13.888 11.632 13.888 12.464V23.216ZM56.5975 40.752L52.5655 36.528C51.0935 34.992 49.9415 33.712 49.3015 33.712C48.3415 33.712 47.9575 34.224 47.9575 34.928V39.088C47.9575 40.688 48.6615 42.672 50.3895 43.184C52.1175 43.696 52.5015 44.208 52.5015 44.848C52.5015 45.488 51.9895 46.128 50.3255 46.128C48.9175 46.128 46.3575 45.744 45.3335 45.744C44.0535 45.744 41.0455 46.128 39.6375 46.128C37.9735 46.128 37.3975 45.488 37.3975 44.848C37.3975 44.208 38.4855 43.696 40.2135 43.184C41.9415 42.672 42.6455 40.688 42.6455 39.088V9.712C42.6455 8.624 41.6855 7.344 40.1495 6.768C39.4455 6.512 38.6775 6 38.6775 5.296C38.6775 4.592 39.6375 4.08 40.5335 3.952C43.0935 3.504 46.5495 2.416 47.1895 2.416C47.9575 2.416 47.9575 2.864 47.9575 4.144V30.64C47.9575 31.472 48.0855 31.792 49.3655 31.792C50.4535 31.792 51.5415 31.472 53.5255 29.104L57.1735 24.752C57.8775 23.92 58.1975 23.28 58.1975 22.832C58.1975 22.192 57.4935 21.744 57.1095 21.68C56.1495 21.488 55.5735 21.232 55.5735 20.592C55.5735 19.952 56.1495 19.312 57.1735 19.312H62.2295C63.1895 19.312 65.1095 18.928 66.0695 18.928C67.0935 18.928 67.6055 19.568 67.6055 20.208C67.6055 20.848 66.3895 21.36 65.4295 21.68C64.7255 21.936 62.2935 23.536 60.6935 25.328L56.4055 30.064C55.9575 30.512 55.3175 31.28 55.3175 31.92C55.3175 32.88 57.8135 34.928 60.3735 37.488C62.9335 40.048 66.2615 42.608 68.1175 43.184C69.8455 43.696 70.8695 44.208 70.8695 44.848C70.8695 45.488 70.3575 46.128 68.6935 46.128C67.2855 46.128 64.0855 45.744 63.0615 45.744C61.7815 45.744 59.5415 46.128 58.1335 46.128C56.4695 46.128 55.8935 45.488 55.8935 44.848C55.8935 44.208 58.2615 43.44 58.2615 43.12C58.2615 42.8 57.5575 41.776 56.5975 40.752ZM78.1205 30.832C78.1205 36.848 81.0005 43.504 86.9525 43.504C91.6885 43.504 93.6725 37.744 93.6725 33.008C93.6725 27.312 90.7285 21.168 85.1605 21.168C80.5525 21.168 78.1205 26.224 78.1205 30.832ZM85.6085 18.48C93.0325 18.48 100.009 23.856 100.009 31.28C100.009 39.536 93.4805 46.512 85.2885 46.512C77.4805 46.512 71.7205 39.856 71.7205 32.24C71.7205 24.56 78.6965 18.48 85.6085 18.48Z" fill="white"/>
<path d="M6.944 66.28C6.944 67.24 7.456 67.752 8.672 67.752C11.072 67.752 12.384 65.8 12.384 63.624C12.384 60.936 11.136 59.688 7.904 59.688C7.424 59.688 6.944 59.88 6.944 60.552V66.28ZM6.944 52.104V57.64C6.944 58.12 7.328 58.28 7.904 58.28C9.856 58.28 11.84 56.68 11.84 54.728C11.84 52.456 10.24 51.24 8.416 51.24C7.136 51.24 6.944 51.432 6.944 52.104ZM5.408 50.088C6.176 50.088 8 49.928 9.44 49.928C11.936 49.928 14.592 51.24 14.592 53.672C14.592 55.944 13.504 57.672 11.68 58.28C11.328 58.408 11.36 58.728 11.616 58.76C14.016 59.112 15.936 60.648 15.936 63.24C15.936 67.176 12.608 69.064 8.352 69.064C7.68 69.064 5.92 68.904 5.312 68.904C3.808 68.904 1.92 69.064 1.696 69.064C1.344 69.032 0.64 68.84 0.64 68.52C0.64 68.04 1.696 67.88 2.4 67.56C3.488 67.08 3.904 66.056 3.904 64.872V53.576C3.904 51.752 3.104 51.72 1.28 51.208C0.992 51.112 0.768 50.952 0.768 50.664C0.768 50.28 1.216 50.088 1.888 50.088H5.408ZM30.158 61.128C31.726 63.464 33.742 66.024 36.142 67.752C36.526 68.04 37.262 68.2 37.966 68.264C38.318 68.296 38.51 68.552 38.51 68.808C38.51 69.384 37.39 69.768 36.27 69.768C34.702 69.768 33.102 69.224 32.206 68.264C30.318 66.28 28.814 64.392 27.15 61.608C26.766 60.968 25.838 60.552 24.494 60.552C23.822 60.552 23.598 60.776 23.598 61.416V65.256C23.598 66.44 24.014 67.08 25.102 67.56C25.806 67.88 26.862 68.04 26.862 68.52C26.862 68.84 26.19 69.032 25.838 69.064C25.614 69.064 23.502 68.872 21.966 68.872C20.59 68.872 18.67 69.064 18.446 69.064C18.094 69.032 17.39 68.84 17.39 68.52C17.39 68.04 18.446 67.88 19.15 67.56C20.238 67.08 20.654 66.44 20.654 65.256V53.704C20.654 51.88 19.854 51.848 18.03 51.336C17.742 51.24 17.518 51.08 17.518 50.792C17.518 50.408 17.966 50.248 18.638 50.216C21.454 49.992 22.766 49.896 25.614 49.896C28.846 49.896 32.43 51.24 32.43 54.472C32.43 56.52 31.406 57.864 29.902 58.952C29.486 59.272 29.358 59.24 29.358 59.528C29.358 59.816 29.742 60.52 30.158 61.128ZM24.91 59.4C25.87 59.4 26.99 59.08 27.278 58.76C28.526 57.704 29.23 56.616 29.23 54.952C29.23 52.808 27.342 51.304 25.198 51.304C24.302 51.304 23.598 51.784 23.598 52.392V58.568C23.598 59.144 23.982 59.4 24.91 59.4ZM44.5378 57.608C44.5378 58.376 44.8258 58.6 45.2738 58.6H48.0258C49.0498 58.6 49.4018 58.248 49.9778 57.704C50.3298 57.384 50.6178 56.904 50.9698 56.904C51.2578 56.904 51.3218 57.16 51.3218 57.544C51.3218 57.8 51.1938 58.92 51.1938 59.4C51.1938 59.88 51.2258 60.872 51.2258 61.224C51.2258 61.544 51.1298 62.056 50.8098 62.056C50.3938 62.056 49.9778 61.16 49.7858 60.84C49.5618 60.488 49.3378 60.168 48.6658 60.168H45.3058C44.6978 60.168 44.5378 60.328 44.5378 60.936V66.312C44.5378 67.144 44.8258 67.56 45.7538 67.56H50.2338C52.6978 67.56 53.1138 66.536 54.0417 64.584C54.2018 64.232 54.6178 63.976 54.9058 63.976C55.2257 63.976 55.3538 64.296 55.3538 64.776C55.3538 65.672 54.3938 68.04 54.1378 68.456C53.8818 68.936 53.8178 69.064 53.2738 69.064C52.0898 69.064 46.2978 68.904 42.9058 68.904C41.4018 68.904 39.5138 69.064 39.2898 69.064C38.9378 69.032 38.2338 68.84 38.2338 68.52C38.2338 68.04 39.2898 67.88 39.9938 67.56C41.0818 67.08 41.4978 66.44 41.4978 65.256V53.576C41.4978 51.752 40.6978 51.72 38.8738 51.208C38.5858 51.112 38.3618 50.952 38.3618 50.664C38.3618 50.28 38.8098 50.088 39.4818 50.088H48.6658C50.0098 50.088 51.8978 49.928 52.4738 49.928C52.9858 49.928 53.2418 50.088 53.3058 50.376C53.4338 50.888 53.5938 52.648 53.5938 53C53.5938 53.384 53.4658 53.832 53.0818 53.832C52.6978 53.832 52.2178 53.256 51.9298 52.616C51.6738 52.072 50.8738 51.56 49.3378 51.56H45.5298C44.6658 51.56 44.5378 51.816 44.5378 52.232V57.608ZM61.1565 64.872C61.1565 66.088 61.5725 67.08 62.6605 67.56C63.3645 67.88 64.4205 68.04 64.4205 68.52C64.4205 68.84 63.7485 69.032 63.3965 69.064C63.1725 69.064 61.7645 68.872 60.2285 68.872C58.7245 68.872 57.5085 69.064 57.2845 69.064C56.9325 69.032 56.2285 68.84 56.2285 68.52C56.2285 68.04 57.2845 67.88 57.9885 67.56C59.0765 67.08 59.4925 66.088 59.4925 64.872V56.52C59.4925 54.984 59.3965 53.832 59.0445 53.416L57.8605 52.136C57.1565 51.4 55.9405 51.176 55.9405 50.6C55.9405 50.344 56.1645 50.248 56.6125 50.248H59.9725C60.6765 50.248 61.3485 51.048 61.6685 51.4L72.3245 63.368C72.7405 63.848 73.2205 64.008 73.2205 63.368V53.576C73.2205 51.72 72.4205 51.72 70.5965 51.208C70.3085 51.112 70.0845 50.952 70.0845 50.664C70.0845 50.28 70.7245 50.088 71.2045 50.088C72.4525 50.088 72.9645 50.248 74.1165 50.248C75.2365 50.248 75.9085 50.088 76.9965 50.088C77.4765 50.088 78.1165 50.28 78.1165 50.664C78.1165 50.952 77.9245 51.112 77.6365 51.208C75.8125 51.72 74.9805 51.72 74.9805 53.576V66.344C74.9805 67.848 75.0765 68.104 75.0765 68.968C75.0765 69.288 74.7565 69.352 74.4365 69.352C74.0845 69.352 72.9325 68.776 71.7165 67.432L61.7645 56.392C61.4125 56.04 61.1565 56.008 61.1565 56.712V64.872ZM84.6628 52.328V65.064C84.6628 67.208 85.4948 67.784 89.7828 67.784C93.5908 67.784 95.6068 63.496 95.6068 59.432C95.6068 54.76 91.9908 51.304 87.4468 51.304C86.0708 51.304 84.6628 51.624 84.6628 52.328ZM88.5028 49.864C93.8787 49.864 99.1908 53.352 99.1908 58.792C99.1908 64.328 96.0868 69.224 89.2068 69.224C86.1667 69.224 84.4708 68.872 82.9988 68.872C81.5268 68.872 79.6388 69.064 79.4148 69.064C79.0628 69.032 78.3588 68.872 78.3588 68.52C78.3588 68.04 79.4148 67.88 80.1188 67.56C81.1748 67.08 81.6228 66.44 81.6228 65.256V53.576C81.6228 51.752 80.8228 51.752 78.9988 51.208C78.7108 51.112 78.4868 50.952 78.4868 50.664C78.4868 50.28 78.9348 50.088 79.6068 50.088C80.5988 50.088 81.2068 50.12 82.1668 50.12C84.1508 50.12 86.5188 49.864 88.5028 49.864Z" fill="white"/>
</svg>
