<svg width="200" height="153" viewBox="0 0 200 153" fill="none" xmlns="http://www.w3.org/2000/svg">
<path d="M27.2314 45.4908C27.2314 48.5005 28.3608 49.3784 30.1177 49.3784H40.9098C44.9255 49.3784 46.3059 47.9989 48.5647 45.867C49.9451 44.613 51.0745 42.7319 52.4549 42.7319C53.5843 42.7319 53.8353 43.7351 53.8353 45.24C53.8353 46.2432 53.3333 50.6324 53.3333 52.5135C53.3333 54.3946 53.4588 58.2822 53.4588 59.6617C53.4588 60.9157 53.0824 62.9222 51.8275 62.9222C50.1961 62.9222 48.5647 59.4109 47.8118 58.1568C46.9333 56.7773 46.0549 55.5233 43.4196 55.5233H30.2431C27.8588 55.5233 27.2314 56.1503 27.2314 58.533V79.6012C27.2314 82.8618 28.3608 84.492 32 84.492H49.5686C59.2314 84.492 60.8628 80.479 64.502 72.8293C65.1294 71.4498 66.7608 70.4466 67.8902 70.4466C69.1451 70.4466 69.6471 71.7006 69.6471 73.5817C69.6471 77.0931 65.8824 86.3731 64.8784 88.0034C63.8745 89.8845 63.6235 90.3861 61.4902 90.3861C56.8471 90.3861 34.1333 89.7591 20.8314 89.7591C14.9333 89.7591 7.52941 90.3861 6.65098 90.3861C5.27059 90.2607 2.5098 89.5083 2.5098 88.2542C2.5098 86.3731 6.65098 85.7461 9.41177 84.492C13.6784 82.6109 15.3098 80.1028 15.3098 75.4628V29.6897C15.3098 22.5415 12.1726 22.4161 5.01961 20.4096C3.8902 20.0334 3.01176 19.4064 3.01176 18.2777C3.01176 16.7729 4.76863 16.0204 7.40392 16.0204H43.4196C48.6902 16.0204 56.0941 15.3934 58.3529 15.3934C60.3608 15.3934 61.3647 16.0204 61.6157 17.1491C62.1177 19.1556 62.7451 26.0529 62.7451 27.4324C62.7451 28.9372 62.2431 30.6929 60.7373 30.6929C59.2314 30.6929 57.349 28.4356 56.2196 25.9275C55.2157 23.7956 52.0784 21.7891 46.0549 21.7891H31.1216C27.7333 21.7891 27.2314 22.7923 27.2314 24.4226V45.4908ZM110.976 79.852L103.07 71.5752C100.183 68.5655 97.9245 66.0574 96.6696 66.0574C94.7873 66.0574 94.0343 67.0606 94.0343 68.4401V76.5915C94.0343 79.7266 95.4147 83.6142 98.803 84.6174C102.191 85.6207 102.944 86.6239 102.944 87.878C102.944 89.132 101.94 90.3861 98.6775 90.3861C95.9167 90.3861 90.8971 89.6337 88.8892 89.6337C86.3794 89.6337 80.4814 90.3861 77.7206 90.3861C74.4579 90.3861 73.3284 89.132 73.3284 87.878C73.3284 86.6239 75.4618 85.6207 78.85 84.6174C82.2383 83.6142 83.6186 79.7266 83.6186 76.5915V19.0302C83.6186 16.8983 81.7363 14.3901 78.7245 13.2615C77.3441 12.7599 75.8382 11.7566 75.8382 10.3772C75.8382 8.99769 77.7206 7.99444 79.4775 7.74363C84.4971 6.86579 91.2735 4.73389 92.5284 4.73389C94.0343 4.73389 94.0343 5.61173 94.0343 8.11985V60.0379C94.0343 61.6682 94.2853 62.2952 96.7951 62.2952C98.9285 62.2952 101.062 61.6682 104.952 57.0281L112.105 48.5005C113.485 46.8703 114.113 45.6162 114.113 44.7384C114.113 43.4843 112.732 42.6065 111.979 42.4811C110.097 42.1048 108.968 41.6032 108.968 40.3492C108.968 39.0951 110.097 37.841 112.105 37.841H122.019C123.901 37.841 127.666 37.0886 129.548 37.0886C131.556 37.0886 132.56 38.3427 132.56 39.5967C132.56 40.8508 130.175 41.854 128.293 42.4811C126.913 42.9827 122.144 46.1178 119.007 49.6292L110.599 58.9092C109.721 59.7871 108.466 61.2919 108.466 62.546C108.466 64.4271 113.36 68.4401 118.379 73.4563C123.399 78.4725 129.925 83.4888 133.564 84.6174C136.952 85.6207 138.96 86.6239 138.96 87.878C138.96 89.132 137.956 90.3861 134.693 90.3861C131.932 90.3861 125.658 89.6337 123.65 89.6337C121.14 89.6337 116.748 90.3861 113.987 90.3861C110.725 90.3861 109.595 89.132 109.595 87.878C109.595 86.6239 114.238 85.1191 114.238 84.492C114.238 83.865 112.858 81.8585 110.976 79.852ZM153.177 60.4141C153.177 72.2023 158.825 85.2445 170.495 85.2445C179.781 85.2445 183.672 73.9579 183.672 64.6779C183.672 53.5168 177.899 41.4778 166.981 41.4778C157.946 41.4778 153.177 51.3849 153.177 60.4141ZM167.86 36.2108C182.417 36.2108 196.096 46.7449 196.096 61.2919C196.096 77.4693 183.295 91.1385 167.232 91.1385C151.923 91.1385 140.628 78.0963 140.628 63.173C140.628 48.1243 154.307 36.2108 167.86 36.2108Z" fill="#374709"/>
<path d="M13.6157 129.874C13.6157 131.755 14.6196 132.758 17.0039 132.758C21.7098 132.758 24.2824 128.933 24.2824 124.669C24.2824 119.402 21.8353 116.957 15.498 116.957C14.5569 116.957 13.6157 117.333 13.6157 118.65V129.874ZM13.6157 102.096V112.944C13.6157 113.884 14.3686 114.198 15.498 114.198C19.3255 114.198 23.2157 111.063 23.2157 107.238C23.2157 102.786 20.0784 100.403 16.502 100.403C13.9922 100.403 13.6157 100.779 13.6157 102.096ZM10.6039 98.146C12.1098 98.146 15.6863 97.8324 18.5098 97.8324C23.4039 97.8324 28.6118 100.403 28.6118 105.169C28.6118 109.621 26.4784 113.007 22.902 114.198C22.2118 114.449 22.2745 115.076 22.7765 115.138C27.4824 115.828 31.2471 118.838 31.2471 123.917C31.2471 131.629 24.7216 135.329 16.3765 135.329C15.0588 135.329 11.6078 135.015 10.4157 135.015C7.46667 135.015 3.76471 135.329 3.32549 135.329C2.63529 135.266 1.2549 134.89 1.2549 134.263C1.2549 133.322 3.32549 133.009 4.70588 132.382C6.83922 131.441 7.6549 129.435 7.6549 127.115V104.981C7.6549 101.407 6.08627 101.344 2.5098 100.341C1.9451 100.152 1.50588 99.8389 1.50588 99.2746C1.50588 98.5222 2.38431 98.146 3.70196 98.146H10.6039ZM59.1333 119.778C62.2079 124.356 66.1608 129.372 70.8667 132.758C71.6196 133.322 73.0627 133.636 74.4431 133.761C75.1333 133.824 75.5098 134.326 75.5098 134.827C75.5098 135.956 73.3137 136.708 71.1177 136.708C68.0431 136.708 64.9059 135.642 63.149 133.761C59.4471 129.874 56.498 126.174 53.2353 120.719C52.4824 119.465 50.6627 118.65 48.0275 118.65C46.7098 118.65 46.2706 119.089 46.2706 120.343V127.867C46.2706 130.187 47.0863 131.441 49.2196 132.382C50.6 133.009 52.6706 133.322 52.6706 134.263C52.6706 134.89 51.3529 135.266 50.6627 135.329C50.2235 135.329 46.0824 134.953 43.0706 134.953C40.3726 134.953 36.6078 135.329 36.1686 135.329C35.4784 135.266 34.098 134.89 34.098 134.263C34.098 133.322 36.1686 133.009 37.549 132.382C39.6824 131.441 40.498 130.187 40.498 127.867V105.231C40.498 101.657 38.9294 101.595 35.3529 100.591C34.7882 100.403 34.349 100.09 34.349 99.5254C34.349 98.773 35.2275 98.4595 36.5451 98.3968C42.0667 97.9578 44.6392 97.7697 50.2235 97.7697C56.5608 97.7697 63.5882 100.403 63.5882 106.736C63.5882 110.749 61.5804 113.383 58.6314 115.515C57.8157 116.142 57.5647 116.079 57.5647 116.643C57.5647 117.208 58.3177 118.587 59.1333 119.778ZM48.8431 116.393C50.7255 116.393 52.9216 115.765 53.4863 115.138C55.9333 113.069 57.3137 110.937 57.3137 107.677C57.3137 103.476 53.6118 100.529 49.4078 100.529C47.651 100.529 46.2706 101.469 46.2706 102.661V114.762C46.2706 115.891 47.0235 116.393 48.8431 116.393ZM87.329 112.881C87.329 114.386 87.8937 114.825 88.7722 114.825H94.1682C96.1761 114.825 96.8663 114.135 97.9957 113.069C98.6859 112.442 99.2506 111.502 99.9408 111.502C100.505 111.502 100.631 112.003 100.631 112.756C100.631 113.257 100.38 115.452 100.38 116.393C100.38 117.333 100.443 119.277 100.443 119.967C100.443 120.594 100.255 121.597 99.6271 121.597C98.8114 121.597 97.9957 119.841 97.6192 119.214C97.18 118.524 96.7408 117.897 95.4231 117.897H88.8349C87.6428 117.897 87.329 118.211 87.329 119.402V129.936C87.329 131.567 87.8937 132.382 89.7133 132.382H98.4977C103.329 132.382 104.145 130.375 105.964 126.55C106.278 125.861 107.094 125.359 107.658 125.359C108.286 125.359 108.537 125.986 108.537 126.927C108.537 128.682 106.655 133.322 106.153 134.137C105.651 135.078 105.525 135.329 104.458 135.329C102.137 135.329 90.78 135.015 84.129 135.015C81.18 135.015 77.478 135.329 77.0388 135.329C76.3486 135.266 74.9682 134.89 74.9682 134.263C74.9682 133.322 77.0388 133.009 78.4192 132.382C80.5526 131.441 81.3682 130.187 81.3682 127.867V104.981C81.3682 101.407 79.7996 101.344 76.2231 100.341C75.6584 100.152 75.2192 99.8389 75.2192 99.2746C75.2192 98.5222 76.0977 98.146 77.4153 98.146H95.4231C98.0584 98.146 101.76 97.8324 102.89 97.8324C103.894 97.8324 104.396 98.146 104.521 98.7103C104.772 99.7135 105.086 103.162 105.086 103.852C105.086 104.604 104.835 105.482 104.082 105.482C103.329 105.482 102.388 104.354 101.823 103.099C101.321 102.034 99.7526 101.03 96.7408 101.03H89.2741C87.58 101.03 87.329 101.532 87.329 102.347V112.881ZM119.915 127.115C119.915 129.497 120.73 131.441 122.864 132.382C124.244 133.009 126.315 133.322 126.315 134.263C126.315 134.89 124.997 135.266 124.307 135.329C123.868 135.329 121.107 134.953 118.095 134.953C115.146 134.953 112.762 135.329 112.323 135.329C111.632 135.266 110.252 134.89 110.252 134.263C110.252 133.322 112.323 133.009 113.703 132.382C115.836 131.441 116.652 129.497 116.652 127.115V110.749C116.652 107.74 116.464 105.482 115.774 104.667L113.452 102.159C112.072 100.717 109.687 100.278 109.687 99.1492C109.687 98.6476 110.126 98.4595 111.005 98.4595H117.593C118.974 98.4595 120.291 100.027 120.919 100.717L141.813 124.168C142.628 125.108 143.57 125.422 143.57 124.168V104.981C143.57 101.344 142.001 101.344 138.425 100.341C137.86 100.152 137.421 99.8389 137.421 99.2746C137.421 98.5222 138.675 98.146 139.617 98.146C142.064 98.146 143.068 98.4595 145.326 98.4595C147.523 98.4595 148.84 98.146 150.974 98.146C151.915 98.146 153.17 98.5222 153.17 99.2746C153.17 99.8389 152.793 100.152 152.228 100.341C148.652 101.344 147.021 101.344 147.021 104.981V129.999C147.021 132.946 147.209 133.448 147.209 135.141C147.209 135.768 146.581 135.893 145.954 135.893C145.264 135.893 143.005 134.764 140.621 132.131L121.107 110.498C120.417 109.809 119.915 109.746 119.915 111.125V127.115ZM166.006 102.535V127.491C166.006 131.692 167.637 132.821 176.045 132.821C183.511 132.821 187.464 124.418 187.464 116.455C187.464 107.301 180.374 100.529 171.464 100.529C168.766 100.529 166.006 101.156 166.006 102.535ZM173.535 97.707C184.076 97.707 194.492 104.542 194.492 115.201C194.492 126.049 188.406 135.642 174.915 135.642C168.954 135.642 165.629 134.953 162.743 134.953C159.856 134.953 156.155 135.329 155.715 135.329C155.025 135.266 153.645 134.953 153.645 134.263C153.645 133.322 155.715 133.009 157.096 132.382C159.166 131.441 160.045 130.187 160.045 127.867V104.981C160.045 101.407 158.476 101.407 154.9 100.341C154.335 100.152 153.896 99.8389 153.896 99.2746C153.896 98.5222 154.774 98.146 156.092 98.146C158.037 98.146 159.229 98.2087 161.111 98.2087C165.002 98.2087 169.645 97.707 173.535 97.707Z" fill="#374709"/>
</svg>
