<svg width="39" height="42" viewBox="0 0 39 42" fill="none" xmlns="http://www.w3.org/2000/svg">
<ellipse cx="19.5" cy="20.5" rx="19.5" ry="20.5" fill="white"/>
<path d="M11.207 25.5806H14.8071V40.9304C14.8071 41.2138 15.0443 41.4433 15.3369 41.4433H21.4411C21.7337 41.4433 21.9708 41.2138 21.9708 40.9304V25.6482H26.1095C26.3786 25.6482 26.605 25.4527 26.6357 25.1939L27.2643 19.9109C27.2816 19.7656 27.234 19.62 27.1336 19.511C27.033 19.4019 26.8892 19.3394 26.7382 19.3394H21.971V16.0278C21.971 15.0295 22.5262 14.5233 23.6213 14.5233C23.7773 14.5233 26.7382 14.5233 26.7382 14.5233C27.0308 14.5233 27.2679 14.2936 27.2679 14.0104V9.16121C27.2679 8.87789 27.0308 8.64833 26.7382 8.64833H22.4426C22.4123 8.64689 22.345 8.64453 22.2459 8.64453C21.5005 8.64453 18.9098 8.78619 16.8634 10.609C14.5959 12.6289 14.9111 15.0475 14.9864 15.4668V19.3393H11.207C10.9144 19.3393 10.6772 19.5689 10.6772 19.8522V25.0676C10.6772 25.3509 10.9144 25.5806 11.207 25.5806Z" fill="#212517"/>
</svg>
