<svg width="65" height="44" viewBox="0 0 65 44" fill="none" xmlns="http://www.w3.org/2000/svg">
<path d="M55.4549 1C55.4549 1 42.4193 31.3387 21.1054 21.5998C20.9705 21.8167 20.8357 22.0337 20.7008 22.2431C17.5618 27.1948 13.4413 31.436 8.64663 34.8169C6.45904 36.3653 4.06918 38.3175 2.33859 40.4643C1.522 41.4816 2.27865 43 3.58221 43H22.379C25.6079 43 28.7394 41.9229 31.2791 39.9332L52.6755 23.1856C53.552 22.4974 54.8406 23.1257 54.8406 24.2328V43H58.3467L63.531 14.6883C64.6398 9.04096 64.4375 2.0472 55.4474 1.00748L55.4549 1Z" stroke="white" stroke-width="2" stroke-linecap="round" stroke-linejoin="round"/>
</svg>
