<svg width="343" height="367" viewBox="0 0 343 367" fill="none" xmlns="http://www.w3.org/2000/svg">
<rect x="1" y="1" width="341" height="365" rx="4" stroke="#212517" stroke-width="2" stroke-dasharray="5 5"/>
<g clip-path="url(#clip0_17_19)">
<path d="M200.167 150.667H198.05L188.95 138.867C187.777 137.358 186.276 136.135 184.561 135.292C182.846 134.449 180.961 134.007 179.05 134H162.95C161.039 134.007 159.154 134.449 157.439 135.292C155.724 136.135 154.223 137.358 153.05 138.867L143.95 150.667H141.833C136.31 150.673 131.015 152.87 127.109 156.776C123.204 160.681 121.007 165.977 121 171.5V213.167C121.007 218.69 123.204 223.985 127.109 227.891C131.015 231.796 136.31 233.993 141.833 234H200.167C205.69 233.993 210.985 231.796 214.891 227.891C218.796 223.985 220.993 218.69 221 213.167V171.5C220.993 165.977 218.796 160.681 214.891 156.776C210.985 152.87 205.69 150.673 200.167 150.667ZM159.65 143.958C160.04 143.454 160.54 143.046 161.112 142.765C161.684 142.483 162.313 142.335 162.95 142.333H179.05C179.687 142.336 180.316 142.484 180.887 142.765C181.459 143.047 181.959 143.455 182.35 143.958L187.525 150.667H154.475L159.65 143.958ZM212.667 213.167C212.667 216.482 211.35 219.661 209.006 222.006C206.661 224.35 203.482 225.667 200.167 225.667H141.833C138.518 225.667 135.339 224.35 132.994 222.006C130.65 219.661 129.333 216.482 129.333 213.167V171.5C129.333 168.185 130.65 165.005 132.994 162.661C135.339 160.317 138.518 159 141.833 159H200.167C203.482 159 206.661 160.317 209.006 162.661C211.35 165.005 212.667 168.185 212.667 171.5V213.167Z" fill="#759242"/>
<path d="M171 167.334C166.055 167.334 161.222 168.8 157.111 171.547C153 174.294 149.795 178.199 147.903 182.767C146.011 187.335 145.516 192.362 146.48 197.211C147.445 202.061 149.826 206.515 153.322 210.012C156.819 213.508 161.273 215.889 166.123 216.854C170.972 217.818 175.999 217.323 180.567 215.431C185.135 213.539 189.04 210.334 191.787 206.223C194.534 202.112 196 197.279 196 192.334C195.993 185.706 193.357 179.351 188.67 174.664C183.983 169.977 177.628 167.341 171 167.334ZM171 209.001C167.704 209.001 164.481 208.023 161.741 206.192C159 204.36 156.863 201.757 155.602 198.712C154.341 195.667 154.011 192.315 154.654 189.082C155.297 185.849 156.884 182.88 159.215 180.549C161.546 178.218 164.515 176.631 167.749 175.988C170.982 175.344 174.333 175.675 177.378 176.936C180.424 178.197 183.026 180.334 184.858 183.074C186.689 185.815 187.667 189.038 187.667 192.334C187.667 196.754 185.911 200.993 182.785 204.119C179.66 207.245 175.42 209.001 171 209.001Z" fill="#759242"/>
</g>
<defs>
<clipPath id="clip0_17_19">
<rect width="100" height="100" fill="white" transform="translate(121 134)"/>
</clipPath>
</defs>
</svg>
