<svg width="42" height="42" viewBox="0 0 42 42" fill="none" xmlns="http://www.w3.org/2000/svg">
<path d="M34.5035 10.2518C34.5035 11.6849 33.3416 12.8469 31.9084 12.8469C30.4754 12.8469 29.3134 11.6849 29.3134 10.2518C29.3134 8.81862 30.4754 7.65674 31.9084 7.65674C33.3419 7.65674 34.5035 8.81833 34.5035 10.2518Z" fill="white"/>
<path d="M29.5207 0.0639648H20.9763V4.27627H29.5207C34.0833 4.27627 37.7821 7.97537 37.7821 12.5379V29.4624C37.7821 34.025 34.0833 37.7238 29.5207 37.7238H20.9763V41.9362H29.5207C36.3985 41.9362 41.9944 36.3404 41.9944 29.4623V12.5377C41.9944 5.65961 36.3986 0.0639648 29.5207 0.0639648Z" fill="white"/>
<path d="M21.0583 10.1699C21.0308 10.1699 21.0039 10.1719 20.9763 10.1719V14.3842C21.0036 14.3839 21.0308 14.3822 21.0583 14.3822C24.713 14.3822 27.6754 17.3448 27.6754 20.9997C27.6754 24.6544 24.7131 27.6168 21.0583 27.6168C21.0308 27.6168 21.0036 27.6151 20.9763 27.6148V31.8271C21.0039 31.8274 21.0308 31.8291 21.0583 31.8291C27.0297 31.8291 31.8877 26.971 31.8877 20.9997C31.8877 15.0283 27.0297 10.1699 21.0583 10.1699Z" fill="white"/>
<path d="M29.526 0.0639648H12.6014C5.72333 0.0639648 0.127686 5.65961 0.127686 12.5377V29.4623C0.127686 36.3401 5.72333 41.9362 12.6016 41.9362H29.5261C36.4039 41.9362 42 36.3404 42 29.4623V12.5377C41.9999 5.65961 36.4041 0.0639648 29.526 0.0639648ZM37.7876 29.4624C37.7876 34.025 34.0888 37.7238 29.5261 37.7238H12.6016C8.03894 37.7238 4.34014 34.025 4.34014 29.4624V12.5379C4.34014 7.97522 8.03894 4.27627 12.6016 4.27627H29.5261C34.0888 4.27627 37.7876 7.97537 37.7876 12.5379V29.4624Z" fill="white"/>
<path d="M21.0637 10.1699C15.0923 10.1699 10.2339 15.0283 10.2339 20.9997C10.2339 26.9707 15.0923 31.8291 21.0637 31.8291C27.0351 31.8291 31.8931 26.9712 31.8931 20.9997C31.8931 15.0283 27.0351 10.1699 21.0637 10.1699ZM21.0637 27.6168C17.409 27.6168 14.4462 24.6545 14.4462 20.9997C14.4462 17.3449 17.409 14.3822 21.0637 14.3822C24.7184 14.3822 27.6808 17.3448 27.6808 20.9997C27.6808 24.6544 24.7184 27.6168 21.0637 27.6168Z" fill="white"/>
</svg>
