<svg width="38" height="39" viewBox="0 0 38 39" fill="none" xmlns="http://www.w3.org/2000/svg">
<circle cx="14.3482" cy="14.3482" r="11.2152" transform="rotate(-15 14.3482 14.3482)" stroke="black"/>
<mask id="path-2-inside-1_132_22" fill="white">
<path d="M22.4411 13.1445C22.6427 13.0904 22.7631 12.8829 22.7012 12.6835C22.0911 10.7181 20.8649 8.99019 19.1848 7.73751C17.4953 6.47776 15.4345 5.76411 13.2874 5.69011C13.0895 5.68329 12.9276 5.84195 12.9231 6.03986C12.9184 6.2438 13.0824 6.41103 13.2863 6.4189C15.2634 6.4952 17.1597 7.15618 18.7164 8.31684C20.2676 9.47345 21.4018 11.0668 21.9705 12.8794C22.033 13.0785 22.2395 13.1985 22.4411 13.1445Z"/>
</mask>
<path d="M22.4411 13.1445C22.6427 13.0904 22.7631 12.8829 22.7012 12.6835C22.0911 10.7181 20.8649 8.99019 19.1848 7.73751C17.4953 6.47776 15.4345 5.76411 13.2874 5.69011C13.0895 5.68329 12.9276 5.84195 12.9231 6.03986C12.9184 6.2438 13.0824 6.41103 13.2863 6.4189C15.2634 6.4952 17.1597 7.15618 18.7164 8.31684C20.2676 9.47345 21.4018 11.0668 21.9705 12.8794C22.033 13.0785 22.2395 13.1985 22.4411 13.1445Z" stroke="black" stroke-width="2" mask="url(#path-2-inside-1_132_22)"/>
<rect x="21.3066" y="22.8869" width="1.05131" height="22.5566" rx="0.525654" transform="rotate(-45 21.3066 22.8869)" fill="black"/>
</svg>
