<svg width="34" height="35" viewBox="0 0 34 35" fill="none" xmlns="http://www.w3.org/2000/svg">
<path d="M31.4673 20.1545L34 7.78807H9.04122L8.17388 3.67519L0.652245 0L0 1.29917L6.86939 4.62004L10.3388 21.2105H30.3918C30.3918 21.2105 32.3694 22.4541 31.6061 24.0242C31.2661 24.5105 30.7388 25.108 29.7951 25.108H9.83918V26.5392H29.802C31.1759 26.5392 32.3347 25.8167 32.9869 24.6634C34.2637 22.2735 31.4673 20.1545 31.4673 20.1545ZM11.5739 19.7585L9.33265 9.22619H32.2653L30.0935 19.7585H11.5739Z" fill="#212517"/>
<path d="M13.9609 28.5609C12.4413 28.5609 11.2131 29.7837 11.2131 31.2982C11.2131 32.8127 12.4413 34.0355 13.9609 34.0355C15.4805 34.0355 16.7086 32.8127 16.7086 31.2982C16.7086 29.7837 15.4805 28.5609 13.9609 28.5609ZM13.9609 32.5974C13.2393 32.5974 12.6564 32.0207 12.6564 31.2982C12.6564 30.5757 13.2323 29.999 13.9609 29.999C14.6895 29.999 15.2654 30.5757 15.2654 31.2982C15.2654 32.0207 14.6825 32.5974 13.9609 32.5974Z" fill="#212517"/>
<path d="M28.7197 28.5609C27.2001 28.5609 25.9719 29.7837 25.9719 31.2982C25.9719 32.8127 27.2001 34.0424 28.7197 34.0424C30.2393 34.0424 31.5438 32.8197 31.4674 31.3051C31.4674 29.7906 30.2393 28.5609 28.7197 28.5609ZM30.0242 31.3051C30.0242 32.0277 29.4483 32.6043 28.7197 32.6043C27.9911 32.6043 27.4152 32.0277 27.4152 31.3051C27.4152 30.5826 27.9911 30.006 28.7197 30.006C29.4483 30.006 30.0936 30.5826 30.0242 31.3051Z" fill="#212517"/>
</svg>
