<svg width="59" height="41" viewBox="0 0 59 41" fill="none" xmlns="http://www.w3.org/2000/svg">
<path d="M56.7003 3.51956C54.5706 1.01971 50.6386 0 43.1292 0H15.8702C8.18901 0 4.19033 1.08549 2.06862 3.74695C0 6.3419 0 10.1653 0 15.4571V25.5431C0 35.7949 2.4544 41 15.8702 41H43.1294C49.6415 41 53.25 40.1002 55.5845 37.8941C57.9785 35.6318 59 31.938 59 25.5431V15.4571C59 9.87649 58.8399 6.03049 56.7003 3.51956ZM37.8782 21.8926L25.5 28.2805C25.2233 28.4233 24.9206 28.4942 24.6184 28.4942C24.2762 28.4942 23.9348 28.4032 23.6324 28.2224C23.0629 27.8817 22.7152 27.2723 22.7152 26.6149V13.88C22.7152 13.2237 23.062 12.6148 23.6303 12.2739C24.1988 11.933 24.9058 11.9097 25.4956 12.2123L37.8738 18.5591C38.5036 18.8819 38.8991 19.5239 38.9 20.2243C38.9008 20.9253 38.507 21.5682 37.8782 21.8926Z" fill="white"/>
</svg>
